<svg aria-hidden="true" focusable="false" data-prefix="fas" data-icon="file-alt" class="svg-inline--fa fa-file-alt fa-w-12" role="img" xmlns="http://www.w3.org/2000/svg" viewBox="0 0 384 512" width="26" height="26"><path fill="currentColor" d="M 220.44446,124.00009 V 10.666666 H 42.666666 c -11.822221,0 -21.333333,8.916667 -21.333333,19.999998 V 417.33333 c 0,11.08323 9.511112,20 21.333333,20 H 341.33332 c 11.8222,0 21.33334,-8.91677 21.33334,-20 V 144.00009 H 241.77774 c -11.73328,0 -21.33328,-9 -21.33328,-20 z m 56.88887,196.66647 c 0,5.5 -4.8,10 -10.66667,10 H 117.33334 c -5.86667,0 -10.66668,-4.5 -10.66668,-10 v -6.66646 c 0,-5.5 4.80001,-10 10.66668,-10 h 149.33332 c 5.86667,0 10.66667,4.5 10.66667,10 z m 0,-53.33323 c 0,5.5 -4.8,10 -10.66667,10 H 117.33334 c -5.86667,0 -10.66668,-4.5 -10.66668,-10 v -6.66677 c 0,-5.5 4.80001,-10 10.66668,-10 h 149.33332 c 5.86667,0 10.66667,4.5 10.66667,10 z m 0,-60 v 6.66676 c 0,5.5 -4.8,10 -10.66667,10 H 117.33334 c -5.86667,0 -10.66668,-4.5 -10.66668,-10 v -6.66676 c 0,-5.5 4.80001,-10 10.66668,-10 h 149.33332 c 5.86667,0 10.66667,4.5 10.66667,10 z m 85.33333,-95.08324 v 5.08324 H 248.88891 V 10.666666 h 5.4222 c 5.68887,0 11.11108,2.083334 15.11108,5.833334 l 87.02227,81.666563 c 4,3.749997 6.2222,8.833527 6.2222,14.083527 z"></path></svg>