<svg
   xmlns="http://www.w3.org/2000/svg"
   width="24"
   height="24"
   viewBox="0 0 24 24"
   version="1.1">
  <path
     d="M0 0h24v24H0z"
     fill="none"
     id="path827" />
  <path
     d="m 5,10 c -1.1,0 -2,0.9 -2,2 0,1.1 0.9,2 2,2 1.1,0 2,-0.9 2,-2 0,-1.1 -0.9,-2 -2,-2 z m 14,0 c -1.1,0 -2,0.9 -2,2 0,1.1 0.9,2 2,2 1.1,0 2,-0.9 2,-2 0,-1.1 -0.9,-2 -2,-2 z"/>
  <path
     d="M 11.999999,9.0000004 C 10.350002,9.0000004 9,10.349999 9,12 c 0,1.649997 1.350002,3 2.999999,3 1.649999,0 3,-1.350003 3,-3 0,-1.650001 -1.350001,-2.9999996 -3,-2.9999996 z"
     style="fill:#2a90c2;fill-opacity:1"/>
</svg>
