<svg
   xmlns="http://www.w3.org/2000/svg"
   width="100"
   height="100"
   viewBox="0 0 100 100"
   version="1.1">
  <path
     style="fill:#ebb22d;fill-opacity:1;stroke:none;stroke-width:0.94px;stroke-linecap:butt;stroke-linejoin:miter;stroke-opacity:1"
     d="m 70.75,47 c 0,0 0,10 10.999999,10 10.999999,10e-7 11,-10.000001 11,-10.000001 l -2e-6,-35 c 0,0 -0.02446,-9.9999991 -11.000004,-9.9999994 -10.97554,-2.3e-6 -10.999992,9.9999974 -10.999992,9.9999974 z"/>
  <path
     style="fill:#4baae3;fill-opacity:1;stroke:none;stroke-width:0.94px;stroke-linecap:butt;stroke-linejoin:miter;stroke-opacity:1"
     d="m 25.999555,10.368506 c 0,0 -7.071065,-7.0710723 -14.849234,0.707111 -7.7781754,7.778176 -0.707112,14.849238 -0.707112,14.849238 l 63.639611,63.639599 18.849243,3.29289 -3.292898,-18.849227 z" />
  <path
     style="fill:#3bab33;fill-opacity:1;stroke:none;stroke-width:0.94px;stroke-linecap:butt;stroke-linejoin:miter;stroke-opacity:1"
     d="m 7.58,88.000005 c 0,0 0,9.999995 10.999999,9.999995 10.999999,1e-5 11,-9.999996 11,-9.999996 l -2e-6,-34.999999 c 0,0 -0.02446,-10 -11.000004,-10 -10.97554,-2e-6 -10.999992,9.999998 -10.999992,9.999998 z" />
  <path
     style="fill:#000000;stroke:none;stroke-width:1px;stroke-linecap:butt;stroke-linejoin:miter;stroke-opacity:1;fill-opacity:1"
     d="M 74.08282,89.564454 89.639165,74.008117 92.932063,92.857344 Z"/>
  <path
     style="opacity:0.91000001;fill:#51b294;fill-opacity:1;fill-rule:evenodd;stroke:none;stroke-width:8.50123119;stroke-linecap:round;stroke-linejoin:bevel;stroke-miterlimit:4;stroke-dasharray:none;stroke-opacity:1;paint-order:stroke fill markers"
     d="m 21.58,39.400002 a 3,3 0 0 1 -2.959946,2.999732 3,3 0 0 1 -3.038985,-2.919631 3,3 0 0 1 2.878797,-3.077695 3,3 0 0 1 3.115856,2.837448" />
  <path
     style="opacity:0.91000001;fill:#51b294;fill-opacity:0.99531615;fill-rule:evenodd;stroke:none;stroke-width:8.50123119;stroke-linecap:round;stroke-linejoin:bevel;stroke-miterlimit:4;stroke-dasharray:none;stroke-opacity:1;paint-order:stroke fill markers"
     d="m 84.75,60.599998 a 3,3 0 0 1 -2.959946,2.999733 3,3 0 0 1 -3.038984,-2.919631 3,3 0 0 1 2.878796,-3.077695 3,3 0 0 1 3.115857,2.837448" />
</svg>
